<?xml version="1.0" encoding="UTF-8" standalone="no"?>
<!-- Created with Inkscape (http://www.inkscape.org/) -->

<svg
   width="1000.0001"
   height="500"
   viewBox="0 0 264.58335 132.29167"
   version="1.1"
   id="svg1"
   sodipodi:docname="LogopngBlanco.svg"
   inkscape:version="1.3.2 (091e20e, 2023-11-25, custom)"
   xmlns:inkscape="http://www.inkscape.org/namespaces/inkscape"
   xmlns:sodipodi="http://sodipodi.sourceforge.net/DTD/sodipodi-0.dtd"
   xmlns="http://www.w3.org/2000/svg"
   xmlns:svg="http://www.w3.org/2000/svg">
  <sodipodi:namedview
     id="namedview1"
     pagecolor="#ffffff"
     bordercolor="#000000"
     borderopacity="0.25"
     inkscape:showpageshadow="2"
     inkscape:pageopacity="0.0"
     inkscape:pagecheckerboard="0"
     inkscape:deskcolor="#d1d1d1"
     inkscape:document-units="mm"
     inkscape:zoom="0.61942546"
     inkscape:cx="589.25572"
     inkscape:cy="302.69986"
     inkscape:window-width="1920"
     inkscape:window-height="1009"
     inkscape:window-x="-8"
     inkscape:window-y="-8"
     inkscape:window-maximized="1"
     inkscape:current-layer="g2-1-7-7" />
  <defs
     id="defs1" />
  <g
     inkscape:label="Capa 1"
     inkscape:groupmode="layer"
     id="layer1">
    <g
       id="g2-1-7-7"
       transform="matrix(1.578274,0,0,1.578274,-42.25543,-5.042026)"
       style="display:inline;fill:#ffffff;fill-opacity:1">
      <path
         d="m 78.768618,52.295925 h 3.15398 c -0.49391,1.74731 -1.40876,3.10335 -2.74456,4.06812 -1.33579,0.96478 -3.04202,1.44717 -5.11868,1.44717 -2.61547,0 -4.69213,-0.76646 -6.22998,-2.29938 -1.52663,-1.54364 -2.28994,-3.70366 -2.28994,-6.48007 0,-2.87288 0.77454,-5.10259 2.32362,-6.6891 1.54907,-1.58652 3.55838,-2.37977 6.02792,-2.37977 2.39096,0 4.34415,0.77717 5.85955,2.33153 1.5154,1.55435 2.2731,3.74118 2.2731,6.56046 0,0.17152 -0.006,0.42879 -0.0168,0.77183 h -13.33555 c 0.11225,1.87594 0.6679,3.31238 1.66694,4.30932 0.99904,0.99693 2.24504,1.4954 3.73799,1.4954 1.11129,0 2.05982,-0.27871 2.84558,-0.83613 0.78577,-0.55743 1.84683,-2.29938 1.84683,-2.29938 z m -9.92897,-5.04899 h 9.9848 c -0.1347,-1.43645 -0.51636,-2.51378 -1.14497,-3.232 -0.96537,-1.11484 -2.21697,-1.67227 -3.75482,-1.67227 -1.39192,0 -2.56496,0.44487 -3.5191,1.3346 -0.94292,0.88974 -1.46489,2.07963 -1.56591,3.56967 z"
         style="font-size:100px;line-height:1.4;font-family:Arial;-inkscape-font-specification:'Arial, @opsz=36.0';font-variation-settings:'opsz' 36;text-align:center;letter-spacing:1px;word-spacing:4px;text-anchor:middle;white-space:pre;display:inline;fill:#ffffff;fill-opacity:1;stroke-width:1.01095"
         id="path1-27-8-1"
         inkscape:label="e" />
      <path
         d="m 133.61678,52.295925 h 3.15398 c -0.4939,1.74731 -1.40875,3.10335 -2.74455,4.06812 -1.3358,0.96478 -3.04203,1.44717 -5.11868,1.44717 -2.61547,0 -4.69212,-0.76646 -6.22997,-2.29938 -1.52661,-1.54364 -2.28991,-3.70366 -2.28991,-6.48007 0,-2.87288 0.77452,-5.10259 2.32359,-6.6891 1.54907,-1.58652 3.55837,-2.37977 6.02791,-2.37977 2.39096,0 4.34415,0.77717 5.85954,2.33153 1.5154,1.55435 2.2731,3.74118 2.2731,6.56046 0,0.17152 -0.006,0.42879 -0.0168,0.77183 h -13.3355 c 0.11225,1.87594 0.6679,3.31238 1.66694,4.30932 0.99904,0.99693 2.24503,1.4954 3.73798,1.4954 1.11129,0 2.05981,-0.27871 2.84558,-0.83613 0.78577,-0.55743 1.84683,-2.29938 1.84683,-2.29938 z m -9.92894,-5.04899 h 9.98479 c -0.13472,-1.43645 -0.51636,-2.51378 -1.14497,-3.232 -0.96537,-1.11484 -2.21699,-1.67227 -3.75484,-1.67227 -1.39191,0 -2.56494,0.44487 -3.51908,1.3346 -0.94291,0.88974 -1.46487,2.07963 -1.5659,3.56967 z"
         style="font-size:100px;line-height:1.4;font-family:Arial;-inkscape-font-specification:'Arial, @opsz=36.0';font-variation-settings:'opsz' 36;text-align:center;letter-spacing:1px;word-spacing:4px;text-anchor:middle;white-space:pre;display:inline;fill:#ffffff;fill-opacity:1;stroke-width:1.01095"
         id="path1-11-7-8-4"
         inkscape:label="e" />
      <path
         d="m 87.346273,57.811215 v -15.52442 h -2.677215 v -2.35729 h 2.677215 v -1.90267 c 0,-1.20109 0.10664,-2.09349 0.31991,-2.6772 0.29186,-0.78577 0.80261,-1.41999 1.53224,-1.90267 2.04269,-1.3618 5.47229,-0.39388 5.47229,-0.43778 v 2.64353 c -1.16925,-0.2088 -2.97134,-0.36826 -3.738,0.42094 -0.38165,0.39289 -0.57248,1.12813 -0.57248,2.20575 v 1.6501 h 3.48543 v 2.35729 h -3.48543 v 15.52442 z"
         style="font-size:100px;line-height:1.4;font-family:Arial;-inkscape-font-specification:'Arial, @opsz=36.0';font-variation-settings:'opsz' 36;text-align:center;letter-spacing:1px;word-spacing:4px;text-anchor:middle;white-space:pre;display:inline;fill:#ffffff;fill-opacity:1;stroke-width:1.03451"
         id="path1-1-6-2-9"
         inkscape:label="f"
         sodipodi:nodetypes="cccccsccccsscccccc" />
      <path
         d="m 96.491093,57.811215 v -17.88171 h 3.03079 v 17.88171 z"
         style="font-size:100px;line-height:1.4;font-family:Arial;-inkscape-font-specification:'Arial, @opsz=36.0';font-variation-settings:'opsz' 36;text-align:center;letter-spacing:1px;word-spacing:4px;text-anchor:middle;white-space:pre;display:inline;fill:#ffffff;fill-opacity:1;stroke-width:1.03451"
         id="path1-0-8-4-9"
         inkscape:label="i" />
      <path
         d="m 167.58967,57.802745 v -17.83985 h 2.72771 l 0.006,2.19545 c 0.68594,-1.12605 2.07335,-1.86229 3.35235,-2.15031 0.0466,-0.007 1.54206,-0.25449 2.59724,0.39657 l -0.0117,2.90082 c -0.74086,-0.43779 -1.48172,-0.65667 -2.22258,-0.65667 -0.66228,0 -1.25722,0.20205 -1.7848,0.60615 -0.52759,0.39289 -0.90363,0.94293 -1.12813,1.65011 -0.33676,1.07762 -0.50514,2.25626 -0.50514,3.53592 v 9.36181 z"
         style="font-size:100px;line-height:1.4;font-family:Arial;-inkscape-font-specification:'Arial, @opsz=36.0';font-variation-settings:'opsz' 36;text-align:center;letter-spacing:1px;word-spacing:4px;text-anchor:middle;white-space:pre;display:inline;fill:#ffffff;fill-opacity:1;stroke-width:1.03451"
         id="path1-9-8-0-3"
         sodipodi:nodetypes="ccccsccsccscc"
         inkscape:label="r" />
      <path
         d="m 139.50042,57.811215 v -17.84832 h 2.72772 v 2.3239 c 1.31335,-1.91741 3.21041,-2.3239 5.69117,-2.3239 1.07762,0 2.06543,0.19174 2.96345,0.57522 0.90925,0.37252 1.58836,0.86557 2.03738,1.47914 0.449,0.61357 0.7633,1.34218 0.9429,2.18584 0.11226,0.54783 0.16839,1.50653 0.16839,2.87611 v 10.73201 h -3.0308 v -10.61697 c 0,-1.20523 -0.11787,-2.10366 -0.35359,-2.69532 -0.23573,-0.60262 -0.65668,-1.07923 -1.26284,-1.42984 -0.59494,-0.36157 -1.29651,-0.54235 -2.10472,-0.54235 -1.29089,0 -2.4078,0.39992 -3.35071,1.19975 -0.93169,0.79983 -1.39754,2.31732 -1.39754,4.55248 v 9.53225 z"
         style="font-size:100px;line-height:1.4;font-family:Arial;-inkscape-font-specification:'Arial, @opsz=36.0';font-variation-settings:'opsz' 36;text-align:center;letter-spacing:1px;word-spacing:4px;text-anchor:middle;white-space:pre;display:inline;fill:#ffffff;fill-opacity:1;stroke-width:1.02206"
         id="path1-2-4-3-6"
         inkscape:label="n"
         sodipodi:nodetypes="ccccscscsccsccscscc" />
      <path
         d="m 164.94423,54.935895 v 2.66568 c 0,0 -1.17863,0.24251 -1.85215,0.24251 -1.10006,0 -1.95317,-0.17172 -2.55933,-0.51516 -0.60616,-0.34345 -1.03273,-0.79214 -1.27967,-1.34608 -0.24696,-0.56501 -0.37043,-1.74491 -0.37043,-3.53967 v -10.15373 h -2.2226 v -2.32655 h 2.2226 v -4.37059 h 3.01396 v 4.37059 h 3.04762 v 2.32655 h -3.04762 v 10.31991 c 0,0.85307 0.0505,1.40146 0.15154,1.64519 0.11224,0.24374 0.28623,0.43762 0.52197,0.58165 0.24696,0.14402 0.59494,0.21603 1.04393,0.21603 0.33677,0 0.78015,-0.0388 1.33018,-0.11633 z"
         style="font-size:100px;line-height:1.4;font-family:Arial;-inkscape-font-specification:'Arial, @opsz=36.0';font-variation-settings:'opsz' 36;text-align:center;letter-spacing:1px;word-spacing:4px;text-anchor:middle;white-space:pre;display:inline;fill:#ffffff;fill-opacity:1;stroke-width:1.02774"
         id="path1-5-6-2-2"
         sodipodi:nodetypes="ccsscsccccccccccsccsc"
         inkscape:label="t" />
      <path
         d="m 114.4936,51.540185 h 3.24863 c -0.32553,1.9617 -1.1618,3.49998 -2.50882,4.61483 -1.33578,1.10414 -2.98026,1.6562 -4.93346,1.6562 -2.44708,0 -4.4171,-0.76111 -5.91005,-2.2833 -1.48174,-1.53293 -2.2226,-3.7251 -2.2226,-6.57654 0,-1.8438 0.31992,-3.45711 0.95976,-4.83996 0.63983,-1.38284 1.61082,-2.4173 2.91294,-3.10336 1.31334,-0.69678 2.73894,-1.04516 4.27679,-1.04516 1.94196,0 3.53033,0.47166 4.76509,1.415 1.23477,0.93261 2.02613,2.26185 2.37411,3.98773 h -2.96239 c -0.28063,-1.147 -0.76435,-1.5758 -1.48276,-2.15466 -0.70719,-0.57886 -1.56592,-0.8683 -2.57618,-0.8683 -1.52663,0 -2.76701,0.52527 -3.72115,1.5758 -0.95414,1.03981 -1.43121,2.69065 -1.43121,4.95251 0,2.29402 0.46023,3.96094 1.38069,5.00074 0.92047,1.03981 2.12157,1.55972 3.60329,1.55972 1.18987,0 2.1833,-0.34839 2.98029,-1.04517 0.79699,-0.69678 1.24703,-2.84608 1.24703,-2.84608 z"
         style="font-size:100px;line-height:1.4;font-family:Arial;-inkscape-font-specification:'Arial, @opsz=36.0';font-variation-settings:'opsz' 36;text-align:center;letter-spacing:1px;word-spacing:4px;text-anchor:middle;white-space:pre;display:inline;fill:#ffffff;fill-opacity:1;stroke-width:1.01095"
         id="path1-17-0-2-6"
         inkscape:label="c" />
      <path
         d="m 187.49358,39.112925 c -1.53783,0 -2.89074,0.21321 -4.05816,0.63976 -2.08233,0.74085 -3.40944,2.08047 -3.99147,4.82089 h 2.98741 c 0.97954,-2.0791 1.72255,-2.95176 4.62453,-2.95176 1.52662,0 2.67693,0.34208 3.45146,1.02681 0.57248,0.50513 0.85886,1.37541 0.85886,2.61018 0,0.11225 -0.005,0.37583 -0.0165,0.79117 -1.15618,0.4041 -2.95826,0.75201 -5.40535,1.04386 -1.20108,0.14592 -2.09897,0.2976 -2.69389,0.45475 -0.80822,0.2245 -1.53796,0.55545 -2.18901,0.99322 -0.63984,0.43778 -1.1617,1.02169 -1.56581,1.75132 -0.39286,0.71841 -0.58911,1.5155 -0.58911,2.39107 0,1.49294 0.52718,2.72175 1.58233,3.68711 1.05518,0.95414 2.56506,1.43144 4.52945,1.43144 1.18987,0 2.30145,-0.19624 3.33416,-0.58911 0.96544,-0.36334 1.96459,-0.96996 2.99723,-1.81333 v 2.40244 h 3.06442 v -0.40411 -9.51312 -2.02055 c 0,-1.34701 -0.0509,-2.27881 -0.15193,-2.79517 -0.1796,-0.83066 -0.49357,-1.51534 -0.94257,-2.05414 -0.449,-0.55004 -1.15065,-1.00454 -2.10479,-1.36374 -0.95413,-0.35921 -2.19459,-0.53899 -3.72122,-0.53899 z m 3.85609,9.31106 v 1.11156 c 0,1.33579 -0.16281,2.3461 -0.48834,3.03082 -0.42656,0.88679 -1.09476,1.58844 -2.00401,2.10479 -0.90924,0.50514 -1.94763,0.75757 -3.11505,0.75757 -1.17865,0 -2.07652,-0.26941 -2.69389,-0.80822 -0.60616,-0.53881 -0.909,-1.21234 -0.909,-2.02055 0,-0.52758 0.14002,-1.00488 0.42066,-1.43143 0.28062,-0.43778 0.67942,-0.76871 1.19579,-0.99322 0.51635,-0.2245 1.39724,-0.42657 2.64324,-0.60617 2.20013,-0.3143 3.85054,-0.69614 4.9506,-1.14515 z"
         style="font-size:100px;line-height:1.4;font-family:Arial;-inkscape-font-specification:'Arial, @opsz=36.0';font-variation-settings:'opsz' 36;text-align:center;letter-spacing:1px;word-spacing:4px;text-anchor:middle;white-space:pre;display:inline;fill:#ffffff;fill-opacity:1;stroke-width:1.03451"
         id="path72-3-8-5"
         inkscape:label="a"
         sodipodi:nodetypes="scccscscccccscsccccccsccssscsccscscscc" />
      <path
         d="m 49.479813,32.365675 c -4.076407,-4e-5 -7.38121,3.30453 -7.381461,7.38094 0.01438,0.34943 0.05359,0.69741 0.117305,1.04128 -0.680649,-0.34544 -1.432958,-0.52617 -2.196248,-0.52761 -2.691276,4e-5 -4.873043,2.18181 -4.873088,4.87308 0.01256,0.146 0.0317,0.29136 0.05736,0.43564 -0.72023,-0.2861 -1.487941,-0.43389 -2.262911,-0.43564 -3.406283,-10e-5 -6.167683,2.7613 -6.167582,6.16759 0.02475,3.0064 2.213733,5.55689 5.181596,6.03735 0.323798,0.0694 0.652667,0.1126 0.983402,0.12919 h 0.0052 l 6.059578,-0.002 v -4.81005 h 3.562057 c 0.317127,-1.52962 0.926144,-2.98383 1.793689,-4.28294 l -0.415996,-0.41599 -2.115116,-2.11512 0.915706,-0.91571 0.815971,-0.81545 0.923458,-0.92346 0.746725,-0.74673 1.280025,1.28003 1.250053,1.25005 c 1.30128,-0.86997 2.75842,-1.48044 4.29121,-1.79782 v -1.22577 -2.33525 h 4.805392 c -0.07402,-4.02143 -3.354186,-7.24346 -7.376294,-7.24556 z"
         style="font-variation-settings:'opsz' 36;display:inline;fill:#ffffff;fill-opacity:1;stroke-width:1.22814;stroke-linecap:round;stroke-linejoin:round"
         id="path13-5-5-9" />
      <path
         d="m 56.861274,48.838055 c -0.747133,-0.28889 -1.556472,-0.45372 -2.405537,-0.45372 -3.688904,0 -6.679696,2.99028 -6.679696,6.67969 0,0.84665 0.16376,1.65347 0.451135,2.39882 l 8.634098,-0.003 z"
         style="font-variation-settings:'opsz' 36;display:inline;fill:#ffffff;fill-opacity:1;stroke-width:1.32292;stroke-linecap:round;stroke-linejoin:round"
         id="path12-1-8-8" />
    </g>
    <g
       id="g11"
       transform="matrix(1.578274,0,0,1.578274,-42.25543,-5.042026)"
       style="display:none;fill:#11618b;fill-opacity:1">
      <path
         d="m 78.768618,52.295925 h 3.15398 c -0.49391,1.74731 -1.40876,3.10335 -2.74456,4.06812 -1.33579,0.96478 -3.04202,1.44717 -5.11868,1.44717 -2.61547,0 -4.69213,-0.76646 -6.22998,-2.29938 -1.52663,-1.54364 -2.28994,-3.70366 -2.28994,-6.48007 0,-2.87288 0.77454,-5.10259 2.32362,-6.6891 1.54907,-1.58652 3.55838,-2.37977 6.02792,-2.37977 2.39096,0 4.34415,0.77717 5.85955,2.33153 1.5154,1.55435 2.2731,3.74118 2.2731,6.56046 0,0.17152 -0.006,0.42879 -0.0168,0.77183 h -13.33555 c 0.11225,1.87594 0.6679,3.31238 1.66694,4.30932 0.99904,0.99693 2.24504,1.4954 3.73799,1.4954 1.11129,0 2.05982,-0.27871 2.84558,-0.83613 0.78577,-0.55743 1.84683,-2.29938 1.84683,-2.29938 z m -9.92897,-5.04899 h 9.9848 c -0.1347,-1.43645 -0.51636,-2.51378 -1.14497,-3.232 -0.96537,-1.11484 -2.21697,-1.67227 -3.75482,-1.67227 -1.39192,0 -2.56496,0.44487 -3.5191,1.3346 -0.94292,0.88974 -1.46489,2.07963 -1.56591,3.56967 z"
         style="font-size:100px;line-height:1.4;font-family:Arial;-inkscape-font-specification:'Arial, @opsz=36.0';font-variation-settings:'opsz' 36;text-align:center;letter-spacing:1px;word-spacing:4px;text-anchor:middle;white-space:pre;display:inline;fill:#11618b;fill-opacity:1;stroke-width:1.01095"
         id="path1"
         inkscape:label="e" />
      <path
         d="m 133.61678,52.295925 h 3.15398 c -0.4939,1.74731 -1.40875,3.10335 -2.74455,4.06812 -1.3358,0.96478 -3.04203,1.44717 -5.11868,1.44717 -2.61547,0 -4.69212,-0.76646 -6.22997,-2.29938 -1.52661,-1.54364 -2.28991,-3.70366 -2.28991,-6.48007 0,-2.87288 0.77452,-5.10259 2.32359,-6.6891 1.54907,-1.58652 3.55837,-2.37977 6.02791,-2.37977 2.39096,0 4.34415,0.77717 5.85954,2.33153 1.5154,1.55435 2.2731,3.74118 2.2731,6.56046 0,0.17152 -0.006,0.42879 -0.0168,0.77183 h -13.3355 c 0.11225,1.87594 0.6679,3.31238 1.66694,4.30932 0.99904,0.99693 2.24503,1.4954 3.73798,1.4954 1.11129,0 2.05981,-0.27871 2.84558,-0.83613 0.78577,-0.55743 1.84683,-2.29938 1.84683,-2.29938 z m -9.92894,-5.04899 h 9.98479 c -0.13472,-1.43645 -0.51636,-2.51378 -1.14497,-3.232 -0.96537,-1.11484 -2.21699,-1.67227 -3.75484,-1.67227 -1.39191,0 -2.56494,0.44487 -3.51908,1.3346 -0.94291,0.88974 -1.46487,2.07963 -1.5659,3.56967 z"
         style="font-size:100px;line-height:1.4;font-family:Arial;-inkscape-font-specification:'Arial, @opsz=36.0';font-variation-settings:'opsz' 36;text-align:center;letter-spacing:1px;word-spacing:4px;text-anchor:middle;white-space:pre;display:inline;fill:#11618b;fill-opacity:1;stroke-width:1.01095"
         id="path2"
         inkscape:label="e" />
      <path
         d="m 87.346273,57.811215 v -15.52442 h -2.677215 v -2.35729 h 2.677215 v -1.90267 c 0,-1.20109 0.10664,-2.09349 0.31991,-2.6772 0.29186,-0.78577 0.80261,-1.41999 1.53224,-1.90267 2.04269,-1.3618 5.47229,-0.39388 5.47229,-0.43778 v 2.64353 c -1.16925,-0.2088 -2.97134,-0.36826 -3.738,0.42094 -0.38165,0.39289 -0.57248,1.12813 -0.57248,2.20575 v 1.6501 h 3.48543 v 2.35729 h -3.48543 v 15.52442 z"
         style="font-size:100px;line-height:1.4;font-family:Arial;-inkscape-font-specification:'Arial, @opsz=36.0';font-variation-settings:'opsz' 36;text-align:center;letter-spacing:1px;word-spacing:4px;text-anchor:middle;white-space:pre;display:inline;fill:#11618b;fill-opacity:1;stroke-width:1.03451"
         id="path3"
         inkscape:label="f"
         sodipodi:nodetypes="cccccsccccsscccccc" />
      <path
         d="m 96.491093,57.811215 v -17.88171 h 3.03079 v 17.88171 z"
         style="font-size:100px;line-height:1.4;font-family:Arial;-inkscape-font-specification:'Arial, @opsz=36.0';font-variation-settings:'opsz' 36;text-align:center;letter-spacing:1px;word-spacing:4px;text-anchor:middle;white-space:pre;display:inline;fill:#11618b;fill-opacity:1;stroke-width:1.03451"
         id="path4"
         inkscape:label="i" />
      <path
         d="m 167.58967,57.802745 v -17.83985 h 2.72771 l 0.006,2.19545 c 0.68594,-1.12605 2.07335,-1.86229 3.35235,-2.15031 0.0466,-0.007 1.54206,-0.25449 2.59724,0.39657 l -0.0117,2.90082 c -0.74086,-0.43779 -1.48172,-0.65667 -2.22258,-0.65667 -0.66228,0 -1.25722,0.20205 -1.7848,0.60615 -0.52759,0.39289 -0.90363,0.94293 -1.12813,1.65011 -0.33676,1.07762 -0.50514,2.25626 -0.50514,3.53592 v 9.36181 z"
         style="font-size:100px;line-height:1.4;font-family:Arial;-inkscape-font-specification:'Arial, @opsz=36.0';font-variation-settings:'opsz' 36;text-align:center;letter-spacing:1px;word-spacing:4px;text-anchor:middle;white-space:pre;display:inline;fill:#11618b;fill-opacity:1;stroke-width:1.03451"
         id="path5"
         sodipodi:nodetypes="ccccsccsccscc"
         inkscape:label="r" />
      <path
         d="m 139.50042,57.811215 v -17.84832 h 2.72772 v 2.3239 c 1.31335,-1.91741 3.21041,-2.3239 5.69117,-2.3239 1.07762,0 2.06543,0.19174 2.96345,0.57522 0.90925,0.37252 1.58836,0.86557 2.03738,1.47914 0.449,0.61357 0.7633,1.34218 0.9429,2.18584 0.11226,0.54783 0.16839,1.50653 0.16839,2.87611 v 10.73201 h -3.0308 v -10.61697 c 0,-1.20523 -0.11787,-2.10366 -0.35359,-2.69532 -0.23573,-0.60262 -0.65668,-1.07923 -1.26284,-1.42984 -0.59494,-0.36157 -1.29651,-0.54235 -2.10472,-0.54235 -1.29089,0 -2.4078,0.39992 -3.35071,1.19975 -0.93169,0.79983 -1.39754,2.31732 -1.39754,4.55248 v 9.53225 z"
         style="font-size:100px;line-height:1.4;font-family:Arial;-inkscape-font-specification:'Arial, @opsz=36.0';font-variation-settings:'opsz' 36;text-align:center;letter-spacing:1px;word-spacing:4px;text-anchor:middle;white-space:pre;display:inline;fill:#11618b;fill-opacity:1;stroke-width:1.02206"
         id="path6"
         inkscape:label="n"
         sodipodi:nodetypes="ccccscscsccsccscscc" />
      <path
         d="m 164.94423,54.935895 v 2.66568 c 0,0 -1.17863,0.24251 -1.85215,0.24251 -1.10006,0 -1.95317,-0.17172 -2.55933,-0.51516 -0.60616,-0.34345 -1.03273,-0.79214 -1.27967,-1.34608 -0.24696,-0.56501 -0.37043,-1.74491 -0.37043,-3.53967 v -10.15373 h -2.2226 v -2.32655 h 2.2226 v -4.37059 h 3.01396 v 4.37059 h 3.04762 v 2.32655 h -3.04762 v 10.31991 c 0,0.85307 0.0505,1.40146 0.15154,1.64519 0.11224,0.24374 0.28623,0.43762 0.52197,0.58165 0.24696,0.14402 0.59494,0.21603 1.04393,0.21603 0.33677,0 0.78015,-0.0388 1.33018,-0.11633 z"
         style="font-size:100px;line-height:1.4;font-family:Arial;-inkscape-font-specification:'Arial, @opsz=36.0';font-variation-settings:'opsz' 36;text-align:center;letter-spacing:1px;word-spacing:4px;text-anchor:middle;white-space:pre;display:inline;fill:#11618b;fill-opacity:1;stroke-width:1.02774"
         id="path7"
         sodipodi:nodetypes="ccsscsccccccccccsccsc"
         inkscape:label="t" />
      <path
         d="m 114.4936,51.540185 h 3.24863 c -0.32553,1.9617 -1.1618,3.49998 -2.50882,4.61483 -1.33578,1.10414 -2.98026,1.6562 -4.93346,1.6562 -2.44708,0 -4.4171,-0.76111 -5.91005,-2.2833 -1.48174,-1.53293 -2.2226,-3.7251 -2.2226,-6.57654 0,-1.8438 0.31992,-3.45711 0.95976,-4.83996 0.63983,-1.38284 1.61082,-2.4173 2.91294,-3.10336 1.31334,-0.69678 2.73894,-1.04516 4.27679,-1.04516 1.94196,0 3.53033,0.47166 4.76509,1.415 1.23477,0.93261 2.02613,2.26185 2.37411,3.98773 h -2.96239 c -0.28063,-1.147 -0.76435,-1.5758 -1.48276,-2.15466 -0.70719,-0.57886 -1.56592,-0.8683 -2.57618,-0.8683 -1.52663,0 -2.76701,0.52527 -3.72115,1.5758 -0.95414,1.03981 -1.43121,2.69065 -1.43121,4.95251 0,2.29402 0.46023,3.96094 1.38069,5.00074 0.92047,1.03981 2.12157,1.55972 3.60329,1.55972 1.18987,0 2.1833,-0.34839 2.98029,-1.04517 0.79699,-0.69678 1.24703,-2.84608 1.24703,-2.84608 z"
         style="font-size:100px;line-height:1.4;font-family:Arial;-inkscape-font-specification:'Arial, @opsz=36.0';font-variation-settings:'opsz' 36;text-align:center;letter-spacing:1px;word-spacing:4px;text-anchor:middle;white-space:pre;display:inline;fill:#11618b;fill-opacity:1;stroke-width:1.01095"
         id="path8"
         inkscape:label="c" />
      <path
         d="m 187.49358,39.112925 c -1.53783,0 -2.89074,0.21321 -4.05816,0.63976 -2.08233,0.74085 -3.40944,2.08047 -3.99147,4.82089 h 2.98741 c 0.97954,-2.0791 1.72255,-2.95176 4.62453,-2.95176 1.52662,0 2.67693,0.34208 3.45146,1.02681 0.57248,0.50513 0.85886,1.37541 0.85886,2.61018 0,0.11225 -0.005,0.37583 -0.0165,0.79117 -1.15618,0.4041 -2.95826,0.75201 -5.40535,1.04386 -1.20108,0.14592 -2.09897,0.2976 -2.69389,0.45475 -0.80822,0.2245 -1.53796,0.55545 -2.18901,0.99322 -0.63984,0.43778 -1.1617,1.02169 -1.56581,1.75132 -0.39286,0.71841 -0.58911,1.5155 -0.58911,2.39107 0,1.49294 0.52718,2.72175 1.58233,3.68711 1.05518,0.95414 2.56506,1.43144 4.52945,1.43144 1.18987,0 2.30145,-0.19624 3.33416,-0.58911 0.96544,-0.36334 1.96459,-0.96996 2.99723,-1.81333 v 2.40244 h 3.06442 v -0.40411 -9.51312 -2.02055 c 0,-1.34701 -0.0509,-2.27881 -0.15193,-2.79517 -0.1796,-0.83066 -0.49357,-1.51534 -0.94257,-2.05414 -0.449,-0.55004 -1.15065,-1.00454 -2.10479,-1.36374 -0.95413,-0.35921 -2.19459,-0.53899 -3.72122,-0.53899 z m 3.85609,9.31106 v 1.11156 c 0,1.33579 -0.16281,2.3461 -0.48834,3.03082 -0.42656,0.88679 -1.09476,1.58844 -2.00401,2.10479 -0.90924,0.50514 -1.94763,0.75757 -3.11505,0.75757 -1.17865,0 -2.07652,-0.26941 -2.69389,-0.80822 -0.60616,-0.53881 -0.909,-1.21234 -0.909,-2.02055 0,-0.52758 0.14002,-1.00488 0.42066,-1.43143 0.28062,-0.43778 0.67942,-0.76871 1.19579,-0.99322 0.51635,-0.2245 1.39724,-0.42657 2.64324,-0.60617 2.20013,-0.3143 3.85054,-0.69614 4.9506,-1.14515 z"
         style="font-size:100px;line-height:1.4;font-family:Arial;-inkscape-font-specification:'Arial, @opsz=36.0';font-variation-settings:'opsz' 36;text-align:center;letter-spacing:1px;word-spacing:4px;text-anchor:middle;white-space:pre;display:inline;fill:#11618b;fill-opacity:1;stroke-width:1.03451"
         id="path9"
         inkscape:label="a"
         sodipodi:nodetypes="scccscscccccscsccccccsccssscsccscscscc" />
      <path
         d="m 49.479813,32.365675 c -4.076407,-4e-5 -7.38121,3.30453 -7.381461,7.38094 0.01438,0.34943 0.05359,0.69741 0.117305,1.04128 -0.680649,-0.34544 -1.432958,-0.52617 -2.196248,-0.52761 -2.691276,4e-5 -4.873043,2.18181 -4.873088,4.87308 0.01256,0.146 0.0317,0.29136 0.05736,0.43564 -0.72023,-0.2861 -1.487941,-0.43389 -2.262911,-0.43564 -3.406283,-10e-5 -6.167683,2.7613 -6.167582,6.16759 0.02475,3.0064 2.213733,5.55689 5.181596,6.03735 0.323798,0.0694 0.652667,0.1126 0.983402,0.12919 h 0.0052 l 6.059578,-0.002 v -4.81005 h 3.562057 c 0.317127,-1.52962 0.926144,-2.98383 1.793689,-4.28294 l -0.415996,-0.41599 -2.115116,-2.11512 0.915706,-0.91571 0.815971,-0.81545 0.923458,-0.92346 0.746725,-0.74673 1.280025,1.28003 1.250053,1.25005 c 1.30128,-0.86997 2.75842,-1.48044 4.29121,-1.79782 v -1.22577 -2.33525 h 4.805392 c -0.07402,-4.02143 -3.354186,-7.24346 -7.376294,-7.24556 z"
         style="font-variation-settings:'opsz' 36;display:inline;fill:#11618b;fill-opacity:1;stroke-width:1.22814;stroke-linecap:round;stroke-linejoin:round"
         id="path10" />
      <path
         d="m 56.861274,48.838055 c -0.747133,-0.28889 -1.556472,-0.45372 -2.405537,-0.45372 -3.688904,0 -6.679696,2.99028 -6.679696,6.67969 0,0.84665 0.16376,1.65347 0.451135,2.39882 l 8.634098,-0.003 z"
         style="font-variation-settings:'opsz' 36;display:inline;fill:#11618b;fill-opacity:1;stroke-width:1.32292;stroke-linecap:round;stroke-linejoin:round"
         id="path11" />
    </g>
  </g>
</svg>
